<mxfile host="app.diagrams.net" modified="2024-06-23T10:54:26.150Z" agent="Mozilla/5.0 (Macintosh; Intel Mac OS X 10_15_7) AppleWebKit/537.36 (KHTML, like Gecko) Chrome/126.0.0.0 Safari/537.36" version="24.6.2" etag="ia68Xe4oGurcK8R1bm3f" type="github">
  <diagram name="Page-1" id="FdCpm7DuvaAZ40D_X8kA">
    <mxGraphModel>
      <root>
        <mxCell id="0" />
        <mxCell id="1" parent="0" />
      </root>
    </mxGraphModel>
  </diagram>
</mxfile>
